<svg width="16" height="16" viewBox="0 0 16 16" fill="none" xmlns="http://www.w3.org/2000/svg">
<path fill-rule="evenodd" clip-rule="evenodd" d="M15.8594 7.9297C15.8594 3.55319 12.3062 0 7.9297 0C3.55319 0 0 3.55319 0 7.9297C0 12.3062 3.55319 15.8594 7.9297 15.8594C12.3062 15.8594 15.8594 12.3062 15.8594 7.9297ZM14.7657 7.9297C14.7657 4.15685 11.7026 1.09373 7.9297 1.09373C4.15685 1.09373 1.09378 4.15685 1.09378 7.9297C1.09378 11.7026 4.15685 14.7657 7.9297 14.7657C11.7026 14.7657 14.7657 11.7026 14.7657 7.9297ZM7.86653 4.904C6.77079 3.80821 4.99154 3.80821 3.89579 4.904C2.80005 5.99974 2.80005 7.77899 3.89579 8.87473L7.86653 12.8455L11.8373 8.87473L11.8501 8.86188C12.933 7.76511 12.9288 5.99546 11.8373 4.904C10.7415 3.80821 8.96227 3.80821 7.86653 4.904Z" fill="white"/>
</svg>
