<svg width="51" height="51" viewBox="0 0 31 31" fill="none" xmlns="http://www.w3.org/2000/svg">
<path fill-rule="evenodd" clip-rule="evenodd" d="M15.3638 0C23.8433 0 30.7276 6.8843 30.7276 15.3638C30.7276 23.8433 23.8433 30.7276 15.3638 30.7276C6.8843 30.7276 0 23.8433 0 15.3638C0 6.8843 6.8843 0 15.3638 0Z" fill="#107052"/>
<path fill-rule="evenodd" clip-rule="evenodd" d="M15.3638 2.1191C22.6737 2.1191 28.6085 8.0539 28.6085 15.3638C28.6085 22.6737 22.6737 28.6085 15.3638 28.6085C8.0539 28.6085 2.1192 22.6737 2.1192 15.3638C2.1192 8.0539 8.0539 2.1191 15.3638 2.1191Z" fill="white"/>
<path fill-rule="evenodd" clip-rule="evenodd" d="M15.2414 9.5015C13.1184 7.3784 9.6711 7.3784 7.5481 9.5015C5.4251 11.6245 5.4251 15.0718 7.5481 17.1948C9.6711 19.3178 13.1184 19.3178 15.2414 17.1948C17.3644 15.0718 17.3644 11.6245 15.2414 9.5015Z" fill="#272727"/>
<path fill-rule="evenodd" clip-rule="evenodd" d="M22.9595 17.1699C25.0577 15.0449 25.0495 11.6162 22.9347 9.5015C20.8117 7.3784 17.3644 7.3784 15.2414 9.5015L7.5481 17.1948L15.2414 24.8881L22.9347 17.1948L22.9595 17.1699Z" fill="#107253"/>
</svg>
